# xmcd CD database file
#
# Track frame offsets:
#	150
#	17087
#	32962
#	49122
#	64957
#	85840
#	100470
#	118002
#	133650
#	155445
#	172030
#
# Disc length: 2516 seconds
#
# Revision: 4
# Processed by: cddbd v1.5.1PL0 Copyright (c) Steve Scherf et al.
# Submitted via: CDex 1.51
#
DISCID=9709d20b
DTITLE=The Claudias - Claudia²
DYEAR=1998
DGENRE=New Age
TTITLE0=So Far Away
TTITLE1=Black Horse
TTITLE2=Rain
TTITLE3=Don't Promise
TTITLE4=Taboo
TTITLE5=Undertow
TTITLE6=Masquerade
TTITLE7=Where Does Love Go
TTITLE8=Rain Remix
TTITLE9=Masquerade Remix
TTITLE10=I Love The Girls
EXTD=YEAR: 1998
EXTT0=
EXTT1=
EXTT2=
EXTT3=
EXTT4=
EXTT5=
EXTT6=
EXTT7=
EXTT8=
EXTT9=
EXTT10=
PLAYORDER=
